<mxfile host="www.draw.io" modified="2019-11-21T02:44:39.462Z" agent="Mozilla/5.0 (Windows NT 10.0; Win64; x64; rv:70.0) Gecko/20100101 Firefox/70.0" etag="kB7hg_P9GES-fFYdzrL1" version="12.2.7" type="github" pages="1">
  <diagram id="-yHQgUPelM5DFSQj007s" name="Page-1">
    <mxGraphModel dx="1129" dy="629" grid="1" gridSize="10" guides="1" tooltips="1" connect="1" arrows="1" fold="1" page="1" pageScale="1" pageWidth="827" pageHeight="1169" math="0" shadow="0">
      <root>
        <mxCell id="0"/>
        <mxCell id="1" parent="0"/>
        <mxCell id="PwAD50PHK69hJSLK1TlY-3" value="" style="edgeStyle=orthogonalEdgeStyle;rounded=0;orthogonalLoop=1;jettySize=auto;html=1;" edge="1" parent="1" source="PwAD50PHK69hJSLK1TlY-1" target="PwAD50PHK69hJSLK1TlY-2">
          <mxGeometry relative="1" as="geometry"/>
        </mxCell>
        <mxCell id="PwAD50PHK69hJSLK1TlY-6" value="&lt;div&gt;arrangeMemory&lt;/div&gt;&lt;div&gt;&lt;br&gt;&lt;/div&gt;" style="text;html=1;resizable=0;points=[];align=center;verticalAlign=middle;labelBackgroundColor=#ffffff;" vertex="1" connectable="0" parent="PwAD50PHK69hJSLK1TlY-3">
          <mxGeometry x="0.2257" y="1" relative="1" as="geometry">
            <mxPoint x="57.5" y="-21.5" as="offset"/>
          </mxGeometry>
        </mxCell>
        <mxCell id="PwAD50PHK69hJSLK1TlY-1" value="&lt;div&gt;符号表&lt;/div&gt;&lt;div&gt;i=490&lt;br&gt;&lt;/div&gt;" style="rounded=0;whiteSpace=wrap;html=1;" vertex="1" parent="1">
          <mxGeometry x="170" y="280" width="120" height="60" as="geometry"/>
        </mxCell>
        <mxCell id="PwAD50PHK69hJSLK1TlY-9" value="" style="edgeStyle=orthogonalEdgeStyle;rounded=0;orthogonalLoop=1;jettySize=auto;html=1;" edge="1" parent="1" source="PwAD50PHK69hJSLK1TlY-4" target="PwAD50PHK69hJSLK1TlY-8">
          <mxGeometry relative="1" as="geometry"/>
        </mxCell>
        <mxCell id="PwAD50PHK69hJSLK1TlY-4" value="插入到pouVarMap&lt;span style=&quot;color: #cfbfad&quot;&gt;.&lt;/span&gt;insert&lt;span style=&quot;color: #cfbfad&quot;&gt;(&lt;/span&gt;make_pair&lt;span style=&quot;color: #cfbfad&quot;&gt;(&lt;/span&gt;&lt;span style=&quot;font-weight: 600&quot;&gt;m_currentPou&lt;/span&gt;&lt;span style=&quot;color: #cfbfad&quot;&gt;,&lt;/span&gt;&lt;span style=&quot;font-weight: 600&quot;&gt;m_current_PouVars&lt;/span&gt;&lt;span style=&quot;color: #cfbfad&quot;&gt;))&lt;/span&gt;" style="rounded=0;whiteSpace=wrap;html=1;" vertex="1" parent="1">
          <mxGeometry x="250" y="420" width="400" height="60" as="geometry"/>
        </mxCell>
        <mxCell id="PwAD50PHK69hJSLK1TlY-11" value="" style="edgeStyle=orthogonalEdgeStyle;rounded=0;orthogonalLoop=1;jettySize=auto;html=1;" edge="1" parent="1" source="PwAD50PHK69hJSLK1TlY-8" target="PwAD50PHK69hJSLK1TlY-10">
          <mxGeometry relative="1" as="geometry"/>
        </mxCell>
        <mxCell id="PwAD50PHK69hJSLK1TlY-8" value="初始化" style="rounded=0;whiteSpace=wrap;html=1;" vertex="1" parent="1">
          <mxGeometry x="730" y="420" width="180" height="60" as="geometry"/>
        </mxCell>
        <mxCell id="PwAD50PHK69hJSLK1TlY-10" value="&lt;div&gt;&lt;span style=&quot;color: #808bed&quot;&gt;i=490&lt;br&gt;&lt;/span&gt;&lt;/div&gt;&lt;div&gt;&lt;span style=&quot;color: #808bed&quot;&gt;生成目标代码&lt;br&gt;&lt;/span&gt;&lt;/div&gt;&lt;div&gt;&lt;span style=&quot;color: #808bed&quot;&gt;void&lt;/span&gt;&lt;span style=&quot;color: #646482&quot;&gt; &lt;/span&gt;&lt;span style=&quot;color: #cfbfad&quot;&gt;*&lt;/span&gt;&lt;span style=&quot;font-style: italic&quot;&gt;visit&lt;/span&gt;&lt;span style=&quot;color: #cfbfad&quot;&gt;(&lt;/span&gt;&lt;span style=&quot;color: #ff8bff&quot;&gt;function_block_declaration_c&lt;/span&gt;&lt;span style=&quot;color: #646482&quot;&gt; &lt;/span&gt;&lt;span style=&quot;color: #cfbfad&quot;&gt;*&lt;/span&gt;symbol&lt;span style=&quot;color: #cfbfad&quot;&gt;)&lt;/span&gt;&lt;span style=&quot;color: #646482&quot;&gt; &lt;/span&gt;&lt;span style=&quot;color: #cfbfad&quot;&gt;{&lt;/span&gt;&lt;/div&gt;" style="rounded=0;whiteSpace=wrap;html=1;" vertex="1" parent="1">
          <mxGeometry x="610" y="570" width="270" height="60" as="geometry"/>
        </mxCell>
        <mxCell id="PwAD50PHK69hJSLK1TlY-7" value="" style="edgeStyle=orthogonalEdgeStyle;rounded=0;orthogonalLoop=1;jettySize=auto;html=1;" edge="1" parent="1" source="PwAD50PHK69hJSLK1TlY-2" target="PwAD50PHK69hJSLK1TlY-4">
          <mxGeometry relative="1" as="geometry"/>
        </mxCell>
        <mxCell id="PwAD50PHK69hJSLK1TlY-2" value="数据段创建" style="rounded=0;whiteSpace=wrap;html=1;" vertex="1" parent="1">
          <mxGeometry x="90" y="420" width="120" height="60" as="geometry"/>
        </mxCell>
      </root>
    </mxGraphModel>
  </diagram>
</mxfile>
